<svg width="343" height="152" viewBox="0 0 343 152" fill="none" xmlns="http://www.w3.org/2000/svg">
<g clip-path="url(#clip0)">
<rect width="343" height="152" rx="12" fill="#18A0FB"/>
<g opacity="0.1">
<path d="M234.762 0.886658C234.964 5.84323 235.164 10.7998 235.365 15.7564C231.473 15.7564 229.528 15.7564 225.636 15.7564C225.837 10.7998 226.038 5.84323 226.238 0.886658C218.346 0.886658 210.454 0.886658 202.562 0.886658C186.696 60.6291 170.827 120.37 154.962 180.113C176.3 180.113 197.638 180.113 218.976 180.113C219.177 175.156 219.377 170.2 219.579 165.244C226.86 165.244 234.141 165.244 241.422 165.244C241.625 170.2 241.825 175.156 242.025 180.113C263.363 180.113 284.701 180.113 306.039 180.113C290.173 120.371 274.305 60.6296 258.439 0.886658C250.548 0.886658 242.655 0.886658 234.762 0.886658ZM224.733 38.0206C228.577 38.0206 232.422 38.0185 236.267 38.0195C236.826 51.8021 237.384 65.5856 237.943 79.3677C232.981 79.3677 228.02 79.3677 223.057 79.3677C223.617 65.5862 224.175 51.8031 224.733 38.0206ZM220.48 142.979C221.038 129.197 221.597 115.414 222.156 101.632C227.719 101.632 233.282 101.631 238.844 101.631C239.403 115.413 239.962 129.197 240.52 142.979C233.841 142.979 227.16 142.979 220.48 142.979Z" fill="white"/>
<path d="M273.959 0.886658C270.735 0.886658 269.122 0.886658 265.898 0.886658C286.003 60.6291 306.102 120.371 326.208 180.113C333.472 180.113 340.736 180.113 348 180.113C323.321 120.37 298.64 60.6291 273.959 0.886658Z" fill="white"/>
<path d="M187.041 0.886658C162.36 60.6296 137.679 120.37 113 180.113C120.264 180.113 127.528 180.113 134.793 180.113C154.896 120.371 174.998 60.6296 195.102 0.886658C191.878 0.886658 190.265 0.886658 187.041 0.886658Z" fill="white"/>
</g>
</g>
<defs>
<clipPath id="clip0">
<rect width="343" height="152" fill="white"/>
</clipPath>
</defs>
</svg>
