<svg width="343" height="152" viewBox="0 0 343 152" fill="none" xmlns="http://www.w3.org/2000/svg">
<g clip-path="url(#clip0)">
<rect width="343" height="152" rx="12" fill="#02B65F"/>
<g opacity="0.1" clip-path="url(#clip1)">
<path d="M266.003 47.9994H254.753V151.5C254.753 153.986 252.739 156 250.253 156C248.866 156 228.928 156 227.753 156C225.266 156 223.253 153.986 223.253 151.5V47.9994H212.003C208.005 47.9994 205.989 43.1453 208.822 40.3184L235.822 13.3182C237.577 11.5604 240.429 11.5604 242.184 13.3182L269.184 40.3184C272.013 43.1419 270.005 47.9994 266.003 47.9994Z" fill="white"/>
<path d="M323.184 87.1808L296.184 114.181C293.363 117.008 288.503 115.005 288.503 111V99.8202C279.876 100.353 272.063 103.941 266.132 109.51C265.229 110.358 263.753 109.734 263.753 108.496V74.8175C263.753 74.2542 264.087 73.7415 264.607 73.5232C272.143 70.3586 280.244 68.5625 288.503 68.286V56.9994C288.503 53.0042 293.355 50.9831 296.184 53.8184L323.184 80.8186C324.942 82.5736 324.942 85.4258 323.184 87.1808Z" fill="white"/>
</g>
</g>
<defs>
<clipPath id="clip0">
<rect width="343" height="152" fill="white"/>
</clipPath>
<clipPath id="clip1">
<rect width="144" height="144" fill="white" transform="translate(194 12)"/>
</clipPath>
</defs>
</svg>
